<?xml version="1.0" ?><svg data-name="Слой 1" id="Слой_1" viewBox="0 0 96 96" xmlns="http://www.w3.org/2000/svg"><defs><style>
      .cls-1 {
        fill: #cf5915;
      }

      .cls-2 {
        fill: #ff8721;
      }

      .cls-3 {
        fill: none;
        stroke: #fff;
        stroke-linecap: round;
        stroke-linejoin: round;
        stroke-width: 3px;
      }

      .cls-4 {
        fill: #fff;
      }
    </style></defs><title/><path class="cls-1" d="M92,48v.13A44,44,0,1,1,47.87,4H48c1.06,0,2.11,0,3.16.12a42.89,42.89,0,0,1,5.12.67,43.39,43.39,0,0,1,8.1,2.37A44.13,44.13,0,0,1,88.79,31.47a43.22,43.22,0,0,1,2.43,8.24h0a44,44,0,0,1,.67,5.17C92,45.92,92,47,92,48Z"/><path class="cls-2" d="M91,44.5v.12A39.53,39.53,0,1,1,51.38,5h.12c1,0,1.89,0,2.84.11a38.38,38.38,0,0,1,4.59.6,39.33,39.33,0,0,1,5.45,1.45A44.13,44.13,0,0,1,88.79,31.47a38.33,38.33,0,0,1,1.51,5.59h0a39.22,39.22,0,0,1,.6,4.64C91,42.63,91,43.57,91,44.5Z"/><path class="cls-3" d="M74.66,21.93a36.47,36.47,0,0,1,3,3.52"/><path class="cls-3" d="M58,12a38.11,38.11,0,0,1,11.78,5.76"/><path class="cls-4" d="M59.57,49.81C58.84,49.1,58,47.32,58,44.07s.52-9.85-1.08-12-4.06-3.26-7.85-3.26S41.29,30.22,40,33.35s-1,3.25.47,3.42,2.25.24,2.84.33,1,.49,1.64-.84,2.13-3.57,5-2.31c2.25,1,1.93,3.57,1.67,4.69-2.68,0-10.22.42-12.29,4.85-2.53,5.41-.06,10,3.47,10.88s7.41.35,9.76-2.83c0,0,1.62,2,2,2.37s.87,1,2,0,2.7-2.36,3-2.62A.92.92,0,0,0,59.57,49.81ZM50.8,48.4c-1.23,2.2-6,3.09-5.82-1.72s6.66-4.37,6.66-4.37S52,46.19,50.8,48.4Z"/><path class="cls-4" d="M27.64,59.82c2.47,2.59,9.07,7.37,19.23,7.37,11.3,0,16.79-4.23,17.43-4.81,1-.89,1.63-2-.75-1.32s-8,3.59-16.59,3.18-11-1.81-13.7-2.93S25.19,57.26,27.64,59.82Z"/><path class="cls-4" d="M61.92,59.57s4.17-.69,4.94.36-.77,3.82-1,4.29-.64,1.93.56.79c1.52-1.44,3.2-5.58,2.32-6.73s-5.41-.4-6.82.26S61,59.72,61.92,59.57Z"/><path class="cls-1" d="M92,48v.13A44,44,0,1,1,47.87,4H48c1.06,0,2.11,0,3.16.12a42.89,42.89,0,0,1,5.12.67,43.39,43.39,0,0,1,8.1,2.37A44.13,44.13,0,0,1,88.79,31.47a43.22,43.22,0,0,1,2.43,8.24h0a44,44,0,0,1,.67,5.17C92,45.92,92,47,92,48Z"/><path class="cls-2" d="M91,44.5v.12A39.53,39.53,0,1,1,51.38,5h.12c1,0,1.89,0,2.84.11a38.38,38.38,0,0,1,4.59.6,39.33,39.33,0,0,1,5.45,1.45A44.13,44.13,0,0,1,88.79,31.47a38.33,38.33,0,0,1,1.51,5.59h0a39.22,39.22,0,0,1,.6,4.64C91,42.63,91,43.57,91,44.5Z"/><path class="cls-3" d="M74.66,21.93a36.47,36.47,0,0,1,3,3.52"/><path class="cls-3" d="M58,12a38.11,38.11,0,0,1,11.78,5.76"/><path class="cls-4" d="M58.4,49.81c-.72-.71-1.59-2.49-1.57-5.74s.51-9.85-1.09-12-4.05-3.26-7.85-3.26-7.76,1.41-9,4.54-1,3.25.46,3.42,2.25.24,2.85.33,1,.49,1.63-.84,2.14-3.57,5.05-2.31c2.26,1,1.93,3.57,1.67,4.69-2.67,0-10.22.42-12.29,4.85-2.53,5.41-.06,10,3.47,10.88s7.42.35,9.77-2.83c0,0,1.62,2,2,2.37s.87,1,2,0,2.71-2.36,3-2.62A.92.92,0,0,0,58.4,49.81ZM49.63,48.4c-1.23,2.2-6,3.09-5.82-1.72s6.66-4.37,6.66-4.37S50.87,46.19,49.63,48.4Z"/><g><path class="cls-4" d="M38.42,63.52C34.2,61.66,28,57.22,29.13,56s2.79.6,3.66,1.08,7.79,4.46,14.14,4.46A28,28,0,0,0,58.5,59.29c1.5-.6,3.06-1.83,4-.51S58.59,62.53,57,63.13A28.71,28.71,0,0,1,46.66,65.2,20,20,0,0,1,38.42,63.52Z"/><path class="cls-4" d="M67,56.3s.34-1.74-1.29-2a10.41,10.41,0,0,0-4.79.36c-1.37.51-2.28,1.31-1.88,2s2.24.2,3.1.13,1.68-.13,1.92.14-.16,2.14-.48,2.8-1.06,2-.18,2.33S66.36,60.69,67,56.3Z"/></g></svg>