<svg xmlns="http://www.w3.org/2000/svg" viewBox="0 0 70.48 69.09"><defs><style>.cls-1{fill:#a9caec;}.cls-2{fill:#fff;}.cls-3{opacity:0.6;}</style></defs><title>Recurso 11</title><g id="Capa_2" data-name="Capa 2"><g id="Capa_2-2" data-name="Capa 2"><rect class="cls-1" width="70.48" height="69.09" rx="16.46"/><path class="cls-2" d="M47.59,28.66c0,1.84.06,3.67,0,5.51a7.73,7.73,0,0,0,1.87,5.47c.15.19.3.37.43.57A1.15,1.15,0,0,1,49.6,42l-4.15,3.52a1.41,1.41,0,0,1-2.18,0,13.88,13.88,0,0,1-2.78-3.24C40.3,42,40.2,42,40,42.19a12.72,12.72,0,0,1-4.71,3.24,12.87,12.87,0,0,1-8.68.11,7.57,7.57,0,0,1-5-5.89,10.66,10.66,0,0,1,1.63-8.91,11.08,11.08,0,0,1,5.91-4,38,38,0,0,1,7.5-1.29c.71-.08,1.42-.14,2.13-.21.18,0,.33,0,.32-.26a16.34,16.34,0,0,0-.17-3.5,3.38,3.38,0,0,0-2.78-2.65A5.7,5.7,0,0,0,33,19a4.24,4.24,0,0,0-2.89,3.18c-.21.87-.61,1.18-1.46,1.09l-5.41-.56a1,1,0,0,1-1-1.35c.94-4.57,3.93-7.14,8.25-8.32a18.56,18.56,0,0,1,10,0c2.67.75,4.92,2.07,6.17,4.69a10.92,10.92,0,0,1,.91,4.7c0,2.06,0,4.14,0,6.21ZM39,32.1c0-.55,0-1.1,0-1.65,0-.34-.1-.47-.44-.43-.83.07-1.68.09-2.52.2A8.11,8.11,0,0,0,32,31.69c-1.73,1.36-2.1,3.2-1.81,5.29A3.55,3.55,0,0,0,35,40a5.55,5.55,0,0,0,3.22-3.18A10.59,10.59,0,0,0,39,32.1Z"/><path class="cls-2" d="M35,57a40.39,40.39,0,0,1-22.76-6.76,36.56,36.56,0,0,1-4-3,2.34,2.34,0,0,1-.31-.32.45.45,0,0,1-.07-.56.46.46,0,0,1,.6-.15l1.42.73a53.76,53.76,0,0,0,13.69,5A54.45,54.45,0,0,0,36.73,53.1,52.87,52.87,0,0,0,55.1,49.27,4.57,4.57,0,0,1,56,49c.42-.08.84,0,1,.43s0,.74-.36,1a6.73,6.73,0,0,1-.73.51,37.47,37.47,0,0,1-12.36,5A40.66,40.66,0,0,1,35,57Z"/><path class="cls-2" d="M56.14,47.14a34,34,0,0,0-3.77.28c-.25,0-.52.09-.63-.17s.12-.47.33-.62a10.1,10.1,0,0,1,5.15-1.54,10.63,10.63,0,0,1,3.76.35,1,1,0,0,1,.82,1.07,10.94,10.94,0,0,1-3.3,7.9l-.25.2c-.2.15-.44.28-.65.1s-.09-.4,0-.6a26.19,26.19,0,0,0,1.63-5,4.91,4.91,0,0,0,.06-.65,1,1,0,0,0-.94-1.2A8.7,8.7,0,0,0,56.14,47.14Z"/><g class="cls-3"><path class="cls-2" d="M48.48,28.42c0,1.84.07,3.67,0,5.51a7.71,7.71,0,0,0,1.87,5.47,7.1,7.1,0,0,1,.43.57,1.14,1.14,0,0,1-.26,1.76l-4.15,3.52a1.41,1.41,0,0,1-2.18,0A13.92,13.92,0,0,1,41.38,42c-.18-.29-.28-.28-.51,0A12.45,12.45,0,0,1,27.48,45.3a7.59,7.59,0,0,1-5.06-5.89,10.7,10.7,0,0,1,1.63-8.91,11.14,11.14,0,0,1,5.92-4,38,38,0,0,1,7.49-1.29L39.6,25c.18,0,.33,0,.32-.26a15.72,15.72,0,0,0-.18-3.5A3.36,3.36,0,0,0,37,18.62a5.74,5.74,0,0,0-3.1.18A4.21,4.21,0,0,0,31,22c-.21.87-.62,1.18-1.47,1.09l-5.4-.56a1,1,0,0,1-1-1.35c.94-4.57,3.93-7.14,8.25-8.32a18.52,18.52,0,0,1,10,0c2.68.75,4.93,2.07,6.18,4.69a10.91,10.91,0,0,1,.9,4.7c0,2.06,0,4.14,0,6.21Zm-8.56,3.44c0-.55,0-1.1,0-1.65,0-.34-.1-.47-.44-.43-.84.07-1.69.09-2.52.2a8.11,8.11,0,0,0-4.09,1.47c-1.73,1.36-2.09,3.21-1.8,5.29a3.55,3.55,0,0,0,4.85,3,5.54,5.54,0,0,0,3.23-3.18A10.73,10.73,0,0,0,39.92,31.86Z"/><path class="cls-2" d="M35.84,56.71A40.36,40.36,0,0,1,13.09,50a37.68,37.68,0,0,1-4-3.05,2.34,2.34,0,0,1-.31-.32A.44.44,0,0,1,8.75,46a.45.45,0,0,1,.59-.15c.49.24.95.49,1.42.73a54,54,0,0,0,13.7,5,54.45,54.45,0,0,0,13.17,1.27A52.82,52.82,0,0,0,56,49a5.08,5.08,0,0,1,.88-.3.82.82,0,0,1,1,.43.87.87,0,0,1-.36,1,7.88,7.88,0,0,1-.73.51,37.43,37.43,0,0,1-12.37,5A40.51,40.51,0,0,1,35.84,56.71Z"/><path class="cls-2" d="M57,46.9a31.9,31.9,0,0,0-3.78.29c-.24,0-.51.08-.62-.18s.12-.47.33-.62a10.1,10.1,0,0,1,5.15-1.54,10.55,10.55,0,0,1,3.75.35,1,1,0,0,1,.83,1.07,11,11,0,0,1-3.3,7.9l-.26.21c-.2.14-.44.27-.65.09s-.08-.4,0-.6a26.19,26.19,0,0,0,1.63-5,3.69,3.69,0,0,0,.07-.65,1,1,0,0,0-.95-1.2A8.63,8.63,0,0,0,57,46.9Z"/></g></g></g></svg>